<svg xmlns="http://www.w3.org/2000/svg" height="800" width="1200" clip-rule="evenodd" fill-rule="evenodd" stroke-linejoin="round" stroke-miterlimit="1.414" viewBox="-166.5312 -94.486 1443.2704 566.916"><g fill-rule="nonzero"><path d="M1086.588 377.944H23.622C10.576 377.944 0 367.368 0 354.322v-330.7C0 10.576 10.576 0 23.622 0h1062.966c13.045 0 23.62 10.576 23.62 23.622v330.7c0 13.046-10.575 23.622-23.62 23.622" fill="#aa1835"/><path d="M245.085 140.16c8.909 0 15.024.626 18.006 3.82 2.944 3.131 4.426 9.93 4.554 20.784-12.618.528-36.637.493-48.676-.759.923-19.266 2.248-23.846 26.116-23.846zm-36.904 2.874c-2.682 6.254-4.282 16.657-4.282 27.79 0 18.307 3.266 29.3 10.582 35.66 7.501 6.535 19.64 7.432 31.637 7.432 11.525 0 18.494-.975 31.147-2.75l.988-.131.125-12.755-.618.112c-.154.027-16.036 2.784-32.331 2.784-11.002 0-18.29-1.949-21.676-5.748-4.313-4.766-4.998-11.794-5.026-18.731 3.497.097 23.66.696 34.808.696 10.19 0 28.02-1.308 28.2-1.323l.453-.034.028-.452c.004-.078.434-7.774.434-10.604 0-14.14-1.92-22.629-6.429-28.397-6.35-7.786-19.823-8.837-32.167-8.837-15.228 0-30.114 1.852-35.873 15.288m103.286-39.753h.004zm0 0c-5.444 5.282-7.98 13.555-7.98 26.03 0 13.813 3.517 21.94 11.41 26.337 7.214 4.043 17.692 4.559 29.82 5.136l4.338.223c11.61.584 18.933 1.064 22.945 3.624 3.619 2.31 4.895 6.409 4.895 15.683 0 8.079-1.639 12.56-5.654 15.456-4.014 2.886-10.878 4.181-22.262 4.181-17.517 0-43.019-3.201-43.019-3.201l-.08 14.285s21.825 2.881 43.277 2.881c17.78 0 28.144-2.408 34.647-8.05 6.474-5.61 9.116-13.875 9.116-28.48 0-13.75-3.632-22.28-11.45-26.872-7.034-4.134-16.716-4.676-27.94-5.303l-10.952-.688-2.157-.133c-15.344-.954-21.086-1.302-21.086-14.917 0-7.745.742-12.888 4.532-16.261 3.962-3.53 11.442-5.108 24.25-5.108 17.66 0 39.07 2.7 39.07 2.7l.013-13.576-.452-.056c-.244-.028-23.758-2.845-39.147-2.845-19.612 0-29.409 2.421-36.134 8.954m120.018 93.609c-3.026-3.988-3.577-11.913-3.577-26.066 0-14.139.55-22.05 3.577-26.052 2.947-3.902 8.881-4.613 19.514-4.613 10.625 0 16.564.71 19.517 4.613 3.02 4.002 3.567 11.913 3.567 26.052 0 14.153-.547 22.078-3.567 26.066-2.953 3.902-8.892 4.613-19.517 4.613-10.633 0-16.567-.71-19.514-4.613zm-11.669-60.62c-5.89 6.818-7.077 18.28-7.077 34.554 0 16.289 1.187 27.756 7.077 34.575 6.105 7.069 16.89 8.517 31.183 8.517 14.295 0 25.066-1.448 31.178-8.517 5.89-6.819 7.073-18.286 7.073-34.575 0-16.275-1.182-27.736-7.073-34.554-6.112-7.063-16.883-8.524-31.178-8.524-14.293 0-25.078 1.461-31.183 8.524m149.015-7.487l-.035 69.707c-3.06.786-12.045 2.845-21.368 2.845-17.667 0-20.339-2.735-20.339-20.853v-51.699h-14.64v53.772c0 12.97 1.914 20.165 6.631 24.798 4.724 4.663 12.045 6.563 25.237 6.563 4.036 0 9.79-.773 12.233-1.1l.967-.125c1.398-.167 2.972-.759 5.56-1.85 2.658-1.136 4.21-2.158 4.271-2.193.74-.508 1.364-.925 1.963-.925.53 0 .688 0 .89 1.162l.022-.014c0 .112.57 3.841.57 3.841h12.7l-.05-83.929H568.83m69.352-.153l-1.67.16c-1.858.16-6.465 2.393-7.405 2.936-1.252.717-3.993 2.053-4.64 2.053-.536 0-.702 0-.897-1.169.005.007-.592-3.827-.592-3.827H610.51v83.929h14.64v-69.818c3.354-.71 13.18-2.567 22.572-2.567 9.728 0 14.312.973 16.873 3.604 2.534 2.603 3.459 7.23 3.459 17.076v51.872h14.653v-53.947c0-12.809-1.976-20.198-6.61-24.722-4.612-4.53-12.176-6.464-25.272-6.464-3.792 0-9.532.577-12.642.884m86.37 66.896c-3.027-4.141-4.195-11.064-4.195-24.702 0-13.639 1.183-20.582 4.259-24.772 3.018-4.104 8.063-5.725 17.972-5.725 7.37 0 16.359.953 22.057 1.801v56.014c-3.221.828-12.677 3.034-22.057 3.034-9.88 0-15.1-1.642-18.035-5.65zm40.016-101.38s.063 34.748.077 35.945c-3.208-.577-13.923-2.345-25.682-2.345-13.589 0-22.733 4.168-27.958 12.713-5.134 8.377-5.817 20.06-5.817 30.365 0 10.48.675 22.307 5.699 30.679 4.995 8.35 13.742 12.413 26.698 12.413 6.402 0 10.737-.64 13.325-1.01l1.629-.222c1.926-.188 6.352-2.519 6.622-2.659.648-.27 1.455-.653 2.248-1.049 1.01-.501 2.534-1.239 2.888-1.253.772 0 .89.11 1.066 1.162l.59 3.827h13.283l.056-118.566h-14.724m-618.554 13.79c11.048 0 17.38 1.461 20.516 4.753l.03.035c3.47 3.465 3.757 8.614 3.757 14.514 0 5.783-.288 10.87-3.757 14.334-3.158 3.319-9.498 4.795-20.546 4.795h-35.671v-38.431zm-51.188-13.79v118.566h15.489l.028-52.73 24.655-.006c.307.445 35.445 52.736 35.445 52.736h18.995l-35.304-52.339s-.17-.376.316-.376c1.75 0 7.358-.333 14.693-2.916 4.16-1.48 7.11-3.813 9.625-6.498 4.982-5.532 7.401-13.11 7.401-23.178 0-12.37-2.635-20.54-8.288-25.71-5.653-5.141-14.566-7.55-28.072-7.55zm74.058 16.267s.01.007.015.015l-.024-.036a.103.103 0 00.01.021m-64.527 172.975h-7.935a1.939 1.939 0 01-1.938-1.939v-19.736c0-1.07.868-1.938 1.938-1.938h7.935c1.07 0 1.938.868 1.938 1.938v19.736a1.94 1.94 0 01-1.938 1.939m39.77 0H134.9a2.03 2.03 0 01-2.03-2.031v-19.552a2.03 2.03 0 012.03-2.03h9.227c1.122 0 2.03.91 2.03 2.03v19.552a2.03 2.03 0 01-2.03 2.03m39.769 0h-10.519a2.123 2.123 0 01-2.122-2.122v-19.368c0-1.172.95-2.122 2.122-2.122h10.519c1.172 0 2.122.95 2.122 2.122v19.368c0 1.172-.95 2.123-2.122 2.123m39.77 0h-11.812a2.215 2.215 0 01-2.215-2.215v-19.184c0-1.222.992-2.214 2.215-2.214h11.811c1.223 0 2.215.992 2.215 2.214v19.184a2.215 2.215 0 01-2.215 2.215m39.769 0h-13.103a2.307 2.307 0 01-2.306-2.307v-19a2.307 2.307 0 012.306-2.306h13.103a2.307 2.307 0 012.306 2.306v19a2.307 2.307 0 01-2.306 2.307m39.768 0H288.81a2.4 2.4 0 01-2.399-2.4v-18.813a2.4 2.4 0 012.399-2.4h14.394a2.4 2.4 0 012.4 2.4v18.813a2.4 2.4 0 01-2.4 2.4m39.77 0h-15.687a2.491 2.491 0 01-2.49-2.492v-18.63a2.491 2.491 0 012.49-2.491h15.687a2.491 2.491 0 012.49 2.492v18.629a2.491 2.491 0 01-2.49 2.492m39.768 0h-16.977a2.584 2.584 0 01-2.584-2.584v-18.445a2.584 2.584 0 012.584-2.584h16.977a2.584 2.584 0 012.584 2.584v18.445a2.584 2.584 0 01-2.584 2.584m39.77 0h-18.27a2.677 2.677 0 01-2.676-2.676V262.45a2.677 2.677 0 012.676-2.676h18.27a2.677 2.677 0 012.676 2.676v18.26a2.677 2.677 0 01-2.676 2.677m39.768 0h-19.56a2.768 2.768 0 01-2.769-2.768v-18.076c0-1.53 1.239-2.77 2.768-2.77h19.561c1.53 0 2.768 1.24 2.768 2.77v18.076a2.768 2.768 0 01-2.768 2.768m39.77 0h-20.761a2.862 2.862 0 01-2.861-2.862v-17.89a2.862 2.862 0 012.861-2.861h20.76a2.86 2.86 0 012.86 2.861v17.89a2.86 2.86 0 01-2.86 2.862m413.96 0H523.683a5.23 5.23 0 01-5.23-5.23v-13.154a5.23 5.23 0 015.23-5.23h392.325a5.23 5.23 0 015.229 5.23v13.154a5.23 5.23 0 01-5.23 5.23m93.118-107.026a6.821 6.821 0 01-4.826-1.997l-54.399-54.4c-.805-.805-2.184-.235-2.184.905v48.443c0 3.757-2.938 6.98-6.696 7.048a6.822 6.822 0 01-6.95-6.821v-68.027c0-2.393 1.147-4.695 3.172-5.969a6.848 6.848 0 018.477.94l54.397 54.399c.806.807 2.184.236 2.184-.904v-48.443c0-3.757 2.939-6.98 6.695-7.048a6.823 6.823 0 016.952 6.821v68.021c0 2.462-1.218 4.82-3.336 6.075a6.823 6.823 0 01-3.486.957m-95.53-47.76H893.39c-3.768 0-7.01 2.947-7.068 6.713a6.824 6.824 0 006.823 6.932h11.94c.942 0 1.706.764 1.706 1.707v17.057c0 .942-.764 1.705-1.705 1.705v.001h-25.062c-15.875 0-28.665-12.993-27.774-28.842.806-14.331 12.72-25.743 27.25-25.743h33.868c3.768 0 7.01-2.947 7.068-6.715a6.822 6.822 0 00-6.823-6.93H880.12c-21.958 0-40.487 17.049-41.512 38.984-1.096 23.457 17.672 42.891 40.894 42.891h34.093a6.843 6.843 0 006.844-6.842v-34.075a6.842 6.842 0 00-6.844-6.843" fill="#fff"/></g></svg>