<?xml version="1.0" encoding="utf-8"?>
<!-- Generator: Adobe Illustrator 26.5.0, SVG Export Plug-In . SVG Version: 6.00 Build 0)  -->
<svg version="1.0" id="Layer_1" xmlns="http://www.w3.org/2000/svg" xmlns:xlink="http://www.w3.org/1999/xlink" x="0px" y="0px"
	 viewBox="0 0 735.66 537.17" style="enable-background:new 0 0 735.66 537.17;" xml:space="preserve">
<style type="text/css">
	.st0{fill:#FF0400;}
	.st1{fill:#FFFFFF;}
	.st2{fill:#58595B;}
</style>
<path class="st0" d="M433.83,330.04c77.63-38.81,109.1-133.21,70.28-210.84C465.3,41.57,370.91,10.11,293.28,48.92
	c-77.63,38.81-109.1,133.2-70.29,210.83c38.8,77.63,133.19,109.1,210.82,70.3C433.81,330.05,433.82,330.04,433.83,330.04z"/>
<path class="st1" d="M352.76,169.39v49.12c0,11.94-9.55,21.32-20.76,21.32h-23.66v38.87H332c32.8,0,59.37-27.33,59.37-60.64v-48.67
	c0-11.53,9.55-21.35,20.75-21.35h23.71v-39.28h-23.71C378.9,108.76,352.76,136.09,352.76,169.39"/>
<path class="st2" d="M310.39,394.42c-22.51,0-40.53,17.06-40.53,38.39s18.47,38.38,40.07,38.38c10.81,0,19.38-4.27,25.21-11.09v6.4
	c0,12.79-10.79,23-24.76,23h-3.14v15.39h3.14c22.52,0,40.52-17.06,40.52-38.38v-33.69c0-21.33-18-38.38-40.53-38.38 M310.37,454.15
	c-12.6,0-22.5-9.39-22.5-21.32s9.9-21.33,22.51-21.33c13,0,22.5,10.24,22.5,21.33C332.88,444.76,322.98,454.15,310.37,454.15
	 M404.92,394.45c18.9,0,34.21,14.5,34.21,32.41v42.65h-18v-42.65c0-8.53-7.65-15.35-16.2-15.35c-8.55,0-16.66,6.82-16.66,15.35
	v42.65h-18v-42.65c0-17.91,15.76-32.41,34.67-32.41 M535.04,394.45c-22.52,0-40.51,17.07-40.51,38.39s18.45,38.38,40.06,38.38
	c10.81,0,19.37-4.26,25.22-11.09v9.39h16.21v-36.68c-0.45-21.32-18.46-38.38-41-38.38 M535.02,454.18
	c-12.6,0-22.52-9.39-22.52-21.33s9.92-21.33,22.52-21.33c11.26,0,22.51,8.53,22.51,21.33C557.53,444.79,547.63,454.18,535.02,454.18
	 M251.49,394.47v75.58h-18.35v-75.63h18.35V394.47z M220.89,394.47v17.48h-11.42c-5.42-0.07-9.9,4.22-10.06,9.64V443
	c0,14.87-12.79,27.09-28.33,27.09h-11.42v-17.5h11c5.41,0.07,9.88-4.19,10.06-9.6v-21.47c0-14.86,12.79-27.08,28.79-27.08h11.42
	L220.89,394.47z M478.3,396.17v73.42h-18v-73.47h18V396.17z"/>
</svg>
